<svg width="149" height="163" viewBox="0 0 149 163" fill="none" xmlns="http://www.w3.org/2000/svg">
<path fill-rule="evenodd" clip-rule="evenodd" d="M79.8495 10.2682C92.2279 -1.77976 112.284 -3.72973 125.77 7.11115C141.224 19.5538 142.037 41.8855 128.182 55.3728L80.5634 101.754C77.4872 104.749 72.4916 104.749 69.4154 101.754L21.7973 55.3728C7.96719 41.8855 8.77921 19.5538 24.2338 7.11115C37.7191 -3.72973 57.8002 -1.77976 70.1537 10.2682L75.0019 14.9807L79.8495 10.2682ZM57.8588 52.0529L64.0951 36.2342L74.7245 67.2672C75.7753 70.3353 80.0732 70.4477 81.2831 67.4389L88.9696 48.324L92.161 52.8009C92.8178 53.7222 93.8798 54.2692 95.0111 54.2692H103C104.381 54.2692 105.5 53.1499 105.5 51.7692C105.5 50.3885 104.381 49.2692 103 49.2692H95.7841L91.4506 43.1902C89.8451 40.9383 86.3852 41.3502 85.3529 43.9161L78.1483 61.8327L67.5048 30.7596C66.4501 27.6804 62.1313 27.5821 60.9379 30.61L53.5815 49.2692H42.9999C41.619 49.2692 40.4999 50.3885 40.4999 51.7692C40.4999 53.1499 41.619 54.2692 42.9999 54.2692H54.6029C56.0404 54.2692 57.3315 53.3902 57.8588 52.0529Z" fill="white"/>
<path d="M1.70668 156V136.364H9.45384C10.9368 136.364 12.2024 136.629 13.2507 137.159C14.3054 137.684 15.1076 138.428 15.6573 139.393C16.2134 140.352 16.4915 141.48 16.4915 142.778C16.4915 144.082 16.2102 145.204 15.6477 146.143C15.0852 147.077 14.2702 147.793 13.2028 148.291C12.1417 148.79 10.8569 149.039 9.34837 149.039H4.16122V145.702H8.6772C9.46982 145.702 10.1282 145.594 10.6523 145.376C11.1765 145.159 11.5664 144.833 11.8221 144.398C12.0842 143.964 12.2152 143.424 12.2152 142.778C12.2152 142.126 12.0842 141.576 11.8221 141.129C11.5664 140.681 11.1733 140.343 10.6428 140.113C10.1186 139.876 9.45703 139.758 8.65803 139.758H5.85831V156H1.70668ZM12.3111 147.064L17.1914 156H12.6083L7.83345 147.064H12.3111ZM19.4254 156V136.364H32.657V139.787H23.5771V144.466H31.9762V147.888H23.5771V152.577H32.6953V156H19.4254ZM61.3253 143.238H57.1257C57.049 142.695 56.8924 142.212 56.6559 141.79C56.4194 141.362 56.1158 140.998 55.745 140.697C55.3743 140.397 54.946 140.167 54.4602 140.007C53.9808 139.847 53.4599 139.767 52.8974 139.767C51.881 139.767 50.9957 140.02 50.2415 140.525C49.4872 141.023 48.9023 141.752 48.4869 142.711C48.0714 143.663 47.8636 144.82 47.8636 146.182C47.8636 147.582 48.0714 148.758 48.4869 149.71C48.9087 150.663 49.4968 151.382 50.2511 151.868C51.0053 152.353 51.8778 152.596 52.8686 152.596C53.4247 152.596 53.9393 152.523 54.4123 152.376C54.8917 152.229 55.3168 152.015 55.6875 151.733C56.0582 151.446 56.3651 151.097 56.608 150.688C56.8572 150.279 57.0298 149.812 57.1257 149.288L61.3253 149.308C61.2166 150.209 60.945 151.078 60.5103 151.915C60.082 152.746 59.5036 153.491 58.7749 154.15C58.0526 154.801 57.1896 155.319 56.1861 155.703C55.1889 156.08 54.0607 156.268 52.8015 156.268C51.0501 156.268 49.484 155.872 48.1033 155.08C46.729 154.287 45.6424 153.14 44.8434 151.637C44.0508 150.135 43.6545 148.317 43.6545 146.182C43.6545 144.04 44.0572 142.219 44.8626 140.717C45.668 139.214 46.761 138.07 48.1417 137.284C49.5224 136.491 51.0756 136.095 52.8015 136.095C53.9393 136.095 54.994 136.255 55.9656 136.575C56.9435 136.894 57.8097 137.361 58.5639 137.974C59.3182 138.582 59.9318 139.326 60.4048 140.208C60.8842 141.091 61.1911 142.1 61.3253 143.238ZM67.3178 156H62.869L69.6477 136.364H74.9979L81.767 156H77.3182L72.3995 140.851H72.2461L67.3178 156ZM67.0398 148.282H77.5483V151.522H67.0398V148.282ZM84.1305 156V136.364H91.8777C93.3606 136.364 94.6262 136.629 95.6745 137.159C96.7292 137.684 97.5314 138.428 98.0811 139.393C98.6373 140.352 98.9153 141.48 98.9153 142.778C98.9153 144.082 98.6341 145.204 98.0716 146.143C97.5091 147.077 96.6941 147.793 95.6266 148.291C94.5655 148.79 93.2807 149.039 91.7722 149.039H86.585V145.702H91.101C91.8936 145.702 92.552 145.594 93.0762 145.376C93.6003 145.159 93.9902 144.833 94.2459 144.398C94.508 143.964 94.639 143.424 94.639 142.778C94.639 142.126 94.508 141.576 94.2459 141.129C93.9902 140.681 93.5971 140.343 93.0666 140.113C92.5424 139.876 91.8809 139.758 91.0819 139.758H88.2821V156H84.1305ZM94.7349 147.064L99.6152 156H95.0321L90.2573 147.064H94.7349ZM108.81 156H101.849V136.364H108.868C110.843 136.364 112.543 136.757 113.969 137.543C115.394 138.323 116.49 139.445 117.257 140.908C118.031 142.372 118.417 144.124 118.417 146.163C118.417 148.208 118.031 149.966 117.257 151.436C116.49 152.906 115.388 154.034 113.949 154.821C112.518 155.607 110.805 156 108.81 156ZM106.001 152.443H108.638C109.865 152.443 110.897 152.225 111.735 151.791C112.578 151.35 113.211 150.669 113.633 149.749C114.061 148.822 114.275 147.626 114.275 146.163C114.275 144.712 114.061 143.526 113.633 142.605C113.211 141.685 112.581 141.007 111.744 140.573C110.907 140.138 109.874 139.921 108.647 139.921H106.001V152.443ZM125.644 136.364V156H121.493V136.364H125.644ZM147.105 146.182C147.105 148.323 146.699 150.145 145.887 151.647C145.082 153.149 143.982 154.297 142.589 155.089C141.202 155.875 139.642 156.268 137.91 156.268C136.165 156.268 134.599 155.872 133.212 155.08C131.825 154.287 130.729 153.14 129.923 151.637C129.118 150.135 128.715 148.317 128.715 146.182C128.715 144.04 129.118 142.219 129.923 140.717C130.729 139.214 131.825 138.07 133.212 137.284C134.599 136.491 136.165 136.095 137.91 136.095C139.642 136.095 141.202 136.491 142.589 137.284C143.982 138.07 145.082 139.214 145.887 140.717C146.699 142.219 147.105 144.04 147.105 146.182ZM142.896 146.182C142.896 144.795 142.688 143.625 142.273 142.673C141.863 141.72 141.285 140.998 140.537 140.506C139.789 140.013 138.914 139.767 137.91 139.767C136.906 139.767 136.031 140.013 135.283 140.506C134.535 140.998 133.953 141.72 133.538 142.673C133.129 143.625 132.924 144.795 132.924 146.182C132.924 147.569 133.129 148.739 133.538 149.691C133.953 150.643 134.535 151.366 135.283 151.858C136.031 152.35 136.906 152.596 137.91 152.596C138.914 152.596 139.789 152.35 140.537 151.858C141.285 151.366 141.863 150.643 142.273 149.691C142.688 148.739 142.896 147.569 142.896 146.182Z" fill="white"/>
<path d="M38.2684 156.249C37.6356 156.249 37.0922 156.026 36.6384 155.578C36.191 155.124 35.9672 154.581 35.9672 153.948C35.9672 153.322 36.191 152.785 36.6384 152.337C37.0922 151.89 37.6356 151.666 38.2684 151.666C38.882 151.666 39.4189 151.89 39.8792 152.337C40.3394 152.785 40.5695 153.322 40.5695 153.948C40.5695 154.37 40.4608 154.757 40.2435 155.108C40.0326 155.453 39.7545 155.732 39.4094 155.942C39.0642 156.147 38.6839 156.249 38.2684 156.249Z" fill="#FFB30F"/>
</svg>
