<svg width="24" height="24" viewBox="0 0 24 24" fill="none" xmlns="http://www.w3.org/2000/svg">
<path d="M24 16.0695H13.2769C13.4434 15.2368 13.7829 14.4937 14.2954 13.8404C14.8078 13.1806 15.4388 12.6617 16.1883 12.2838C16.9377 11.8994 17.7545 11.7073 18.6384 11.7073C19.5224 11.7073 20.3359 11.8994 21.079 12.2838C21.8285 12.6617 22.4594 13.1806 22.9719 13.8404C23.4907 14.4937 23.8334 15.2368 24 16.0695ZM24 18.3179C23.8334 19.1507 23.4939 19.8937 22.9815 20.5471C22.469 21.2069 21.8381 21.729 21.0886 22.1133C20.3391 22.4976 19.5224 22.6898 18.6384 22.6898C17.7545 22.6898 16.9377 22.4976 16.1883 22.1133C15.4388 21.729 14.8078 21.2069 14.2954 20.5471C13.7893 19.8873 13.4498 19.1443 13.2769 18.3179H24Z" fill="#32ADE6" fill-opacity="0.6"/>
<path d="M12.095 12.3799L5.82069 6.10556L8.4342 3.49204C9.08118 2.83867 9.7794 2.39988 10.5289 2.17568C11.2847 1.95148 12.0342 1.94187 12.7773 2.14685C13.5203 2.34543 14.2025 2.75219 14.8239 3.36713C15.4388 3.98848 15.8456 4.67069 16.0441 5.41375C16.2491 6.15681 16.2395 6.90627 16.0153 7.66214C15.7911 8.41801 15.3555 9.11943 14.7086 9.7664L12.095 12.3799ZM10.3847 14.0902L7.76161 16.723C7.11464 17.3699 6.41321 17.8055 5.65734 18.0297C4.90788 18.2475 4.16162 18.2571 3.41856 18.0586C2.6755 17.86 1.9933 17.4532 1.37195 16.8383C0.750597 16.2233 0.340634 15.5443 0.142058 14.8013C-0.0565178 14.0582 -0.0469093 13.3087 0.170884 12.5529C0.395082 11.7906 0.833871 11.086 1.48725 10.439L4.11037 7.81588L10.3847 14.0902Z" fill="#32ADE6"/>
</svg>
